HIERARCHY
ROOT joint_Root
{
	OFFSET 0.0 0.0 0.0
	CHANNELS 6 Xposition Yposition Zposition Zrotation Xrotation Yrotation 
	JOINT Hips
	{
		OFFSET 4.5925 91.4895 -427.239
		CHANNELS 6 Xposition Yposition Zposition Zrotation Xrotation Yrotation 
		JOINT Spine
		{
			OFFSET 15.7357 0.0 0.0
			CHANNELS 6 Xposition Yposition Zposition Zrotation Xrotation Yrotation 
			JOINT Chest
			{
				OFFSET 8.98455 -0.406207 0.0
				CHANNELS 6 Xposition Yposition Zposition Zrotation Xrotation Yrotation 
				JOINT Neck
				{
					OFFSET 16.3773 0.0 0.0
					CHANNELS 6 Xposition Yposition Zposition Zrotation Xrotation Yrotation 
					JOINT Head
					{
						OFFSET 6.45672 0.0 0.0
						CHANNELS 6 Xposition Yposition Zposition Zrotation Xrotation Yrotation 
						End Site
						{
							OFFSET 0.0 0.0 0.0
						}
					}
				}
				JOINT Shoulder_L
				{
					OFFSET 12.9942 -0.242716 4.98039
					CHANNELS 6 Xposition Yposition Zposition Zrotation Xrotation Yrotation 
					JOINT UpperArm_L
					{
						OFFSET 5.34809 0.0 0.0
						CHANNELS 6 Xposition Yposition Zposition Zrotation Xrotation Yrotation 
						JOINT LowerArm_L
						{
							OFFSET 24.3286 1.87007e-05 0.0
							CHANNELS 6 Xposition Yposition Zposition Zrotation Xrotation Yrotation 
							JOINT Hand_L
							{
								OFFSET 22.2916 0.0 0.0
								CHANNELS 6 Xposition Yposition Zposition Zrotation Xrotation Yrotation 
								End Site
								{
									OFFSET 0.0 0.0 0.0
								}
							}
						}
					}
				}
				JOINT Shoulder_R
				{
					OFFSET 12.9945 -0.242716 -4.98039
					CHANNELS 6 Xposition Yposition Zposition Zrotation Xrotation Yrotation 
					JOINT UpperArm_R
					{
						OFFSET -5.34813 0.0 0.0
						CHANNELS 6 Xposition Yposition Zposition Zrotation Xrotation Yrotation 
						JOINT LowerArm_R
						{
							OFFSET -24.3289 0.000322201 0.0
							CHANNELS 6 Xposition Yposition Zposition Zrotation Xrotation Yrotation 
							JOINT Hand_R
							{
								OFFSET -22.2915 -0.000108084 0.0
								CHANNELS 6 Xposition Yposition Zposition Zrotation Xrotation Yrotation 
								End Site
								{
									OFFSET 0.0 0.0 0.0
								}
							}
						}
					}
				}
			}
		}
		JOINT UpperLeg_L
		{
			OFFSET -2.19248 -6.46944 0.0
			CHANNELS 6 Xposition Yposition Zposition Zrotation Xrotation Yrotation 
			JOINT LowerLeg_L
			{
				OFFSET 39.0811 0.0 -1.23785e-05
				CHANNELS 6 Xposition Yposition Zposition Zrotation Xrotation Yrotation 
				JOINT Foot_L
				{
					OFFSET 40.9854 0.0 -1.26872e-05
					CHANNELS 6 Xposition Yposition Zposition Zrotation Xrotation Yrotation 
					JOINT Toes_L
					{
						OFFSET 11.7543 0.0 0.0
						CHANNELS 6 Xposition Yposition Zposition Zrotation Xrotation Yrotation 
						End Site
						{
							OFFSET 0.0 0.0 0.0
						}
					}
				}
			}
		}
		JOINT UpperLeg_R
		{
			OFFSET -2.19251 6.46944 0.0
			CHANNELS 6 Xposition Yposition Zposition Zrotation Xrotation Yrotation 
			JOINT LowerLeg_R
			{
				OFFSET -39.0811 -0.00228153 -0.0401928
				CHANNELS 6 Xposition Yposition Zposition Zrotation Xrotation Yrotation 
				JOINT Foot_R
				{
					OFFSET -40.9854 0.0 0.0
					CHANNELS 6 Xposition Yposition Zposition Zrotation Xrotation Yrotation 
					JOINT Toes_R
					{
						OFFSET -11.7543 0.0 0.0
						CHANNELS 6 Xposition Yposition Zposition Zrotation Xrotation Yrotation 
						End Site
						{
							OFFSET 0.0 0.0 0.0
						}
					}
				}
			}
		}
	}
}
MOTION
Frames:	4
Frame Time:	0.0333333
0.000000 0.000000 0.000000 0.000000 0.000000 -0.000000 -2.765000 91.001100 -2.996950 89.205100 -1.263840 12.562600 15.735700 0.000005 -0.000001 88.475500 76.162500 -88.619600 8.984550 -0.406207 -0.000000 19.899300 -0.735147 -0.160056 16.377300 -0.000001 -0.000001 7.208240 -1.552850 2.040400 6.456720 -0.000001 -0.000000 -10.534200 -1.388710 3.943690 12.994200 -0.242716 4.980390 -91.051200 6.115480 -80.227800 5.348090 -0.000007 -0.000001 -57.216200 35.125300 -29.039100 24.328600 0.000019 0.000005 10.525300 24.208600 -24.374900 22.291600 -0.000001 0.000005 10.180100 5.265800 1.011390 12.994500 -0.242716 -4.980390 89.603600 10.957300 -87.915600 -5.348130 -0.000001 -0.000004 -58.473600 30.623200 -23.927200 -24.328900 0.000322 -0.000009 5.216380 10.404700 -26.822000 -22.291500 -0.000108 -0.000004 18.505000 5.387770 -2.544140 -2.192480 -6.469440 -0.000000 -172.498000 -13.688800 -0.097245 39.081100 -0.000007 -0.000012 -0.130887 0.220133 30.735100 40.985400 -0.000006 -0.000013 0.055199 8.617040 -67.537700 11.754300 -0.000000 0.000003 -0.000260 -0.002309 -16.664000 -2.192510 6.469440 -0.000001 173.991000 24.965600 -177.784000 -39.081100 -0.002282 -0.040193 -0.174120 0.308242 29.924600 -40.985400 0.000008 0.000006 6.197080 17.825700 -69.504000 -11.754300 -0.000006 -0.000006 -0.001041 -0.015987 -17.223300
0.000000 0.000000 0.000000 0.000000 0.000000 -0.000000 -2.753800 90.999300 -3.034320 89.199400 -1.251500 12.597700 15.735700 0.000005 -0.000001 88.386100 76.152900 -88.546200 8.984550 -0.406207 -0.000000 19.917400 -0.779543 -0.184191 16.377300 -0.000001 -0.000001 7.232180 -1.548760 1.943350 6.456720 -0.000001 -0.000000 -10.575600 -1.417270 3.966700 12.994200 -0.242716 4.980390 -91.050500 6.115650 -80.234500 5.348090 -0.000007 -0.000001 -57.188500 35.151100 -29.027800 24.328600 0.000019 0.000005 10.533800 24.254700 -24.354200 22.291600 -0.000001 0.000005 10.181500 5.266970 0.979926 12.994500 -0.242716 -4.980390 89.603800 10.953100 -87.915500 -5.348130 -0.000001 -0.000004 -58.782700 30.088500 -23.560800 -24.328900 0.000322 -0.000009 5.511430 10.402800 -28.123600 -22.291500 -0.000108 -0.000004 18.907700 5.394000 -2.743400 -2.192480 -6.469440 -0.000000 -172.499000 -13.696600 -0.100310 39.081100 -0.000007 -0.000012 -0.129617 0.217782 30.760000 40.985400 -0.000006 -0.000013 0.077919 8.636760 -67.528300 11.754300 -0.000000 0.000003 -0.000251 -0.002237 -16.661400 -2.192510 6.469440 -0.000001 173.954000 25.018700 -177.767000 -39.081100 -0.002282 -0.040193 -0.177590 0.314081 29.939600 -40.985400 0.000008 0.000006 6.213770 17.911500 -69.495200 -11.754300 -0.000006 -0.000006 -0.001085 -0.016613 -17.248700
0.000000 0.000000 0.000000 0.000000 0.000000 -0.000000 -2.745770 91.003000 -3.065410 89.180700 -1.288380 12.623300 15.735700 0.000005 -0.000001 88.403500 76.147700 -88.583700 8.984550 -0.406207 -0.000000 19.927800 -0.773722 -0.225475 16.377300 -0.000001 -0.000001 7.249860 -1.586720 1.916810 6.456720 -0.000001 -0.000000 -10.613900 -1.450210 3.929190 12.994200 -0.242716 4.980390 -91.049600 6.108760 -80.231500 5.348090 -0.000007 -0.000001 -57.174800 35.131500 -29.039400 24.328600 0.000019 0.000005 10.526800 24.273200 -24.324100 22.291600 -0.000001 0.000005 10.250800 5.267910 0.954723 12.994500 -0.242716 -4.980390 89.594300 10.976600 -87.870000 -5.348130 -0.000001 -0.000004 -59.042200 29.596400 -23.192700 -24.328900 0.000322 -0.000009 5.993540 10.599000 -29.722100 -22.291500 -0.000108 -0.000004 19.598900 5.400990 -2.969660 -2.192480 -6.469440 -0.000000 -172.471000 -13.718800 -0.089553 39.081100 -0.000007 -0.000012 -0.131132 0.220360 30.756200 40.985400 -0.000006 -0.000013 0.075712 8.625360 -67.505400 11.754300 -0.000000 0.000003 -0.000275 -0.002420 -16.668000 -2.192510 6.469440 -0.000001 173.980000 24.987200 -177.761000 -39.081100 -0.002282 -0.040193 -0.176819 0.313021 29.917500 -40.985400 0.000008 0.000006 6.207030 17.901500 -69.456000 -11.754300 -0.000006 -0.000006 -0.001077 -0.016501 -17.244200
0.000000 0.000000 0.000000 0.000000 0.000000 -0.000000 -2.733110 91.000000 -3.107600 89.188900 -1.319090 12.667400 15.735700 0.000005 -0.000001 88.395600 76.136500 -88.606000 8.984550 -0.406207 -0.000000 19.949900 -0.781302 -0.284811 16.377300 -0.000001 -0.000001 7.282690 -1.581410 1.882770 6.456720 -0.000001 -0.000000 -10.664800 -1.459320 3.880740 12.994200 -0.242716 4.980390 -91.047800 6.094020 -80.225200 5.348090 -0.000007 -0.000001 -57.170200 35.108200 -29.050100 24.328600 0.000019 0.000005 10.492800 24.193300 -24.319500 22.291600 -0.000001 0.000005 10.322200 5.267900 0.954989 12.994500 -0.242716 -4.980390 89.590800 10.976900 -87.852200 -5.348130 -0.000001 -0.000004 -59.363700 28.950100 -22.827900 -24.328900 0.000322 -0.000009 6.531460 10.794200 -31.443100 -22.291500 -0.000108 -0.000004 20.203000 5.408240 -3.207050 -2.192480 -6.469440 -0.000000 -172.480000 -13.743700 -0.077965 39.081100 -0.000007 -0.000012 -0.129591 0.217582 30.778000 40.985400 -0.000006 -0.000013 0.089529 8.616650 -67.494100 11.754300 -0.000000 0.000003 -0.000269 -0.002374 -16.666300 -2.192510 6.469440 -0.000001 173.955000 24.991100 -177.765000 -39.081100 -0.002282 -0.040193 -0.176368 0.311808 29.951700 -40.985400 0.000008 0.000006 6.216060 17.927500 -69.441400 -11.754300 -0.000006 -0.000006 -0.000992 -0.015295 -17.195200
